<svg xmlns="http://www.w3.org/2000/svg" width="31.669" height="47.504" viewBox="0 0 31.669 47.504">
  <g id="qr-code-scan" transform="translate(-4)">
    <g id="Grupo_112" data-name="Grupo 112" transform="translate(9.938 15.835)">
      <path id="Caminho_78" data-name="Caminho 78" d="M8.484,15.917A1.485,1.485,0,0,1,7,14.433V11.464A3.468,3.468,0,0,1,10.464,8h2.969a1.484,1.484,0,0,1,0,2.969H10.464a.5.5,0,0,0-.495.495v2.969A1.485,1.485,0,0,1,8.484,15.917Z" transform="translate(-7 -8)" fill="#2392a5"/>
    </g>
    <g id="Grupo_113" data-name="Grupo 113" transform="translate(21.814 15.835)">
      <path id="Caminho_79" data-name="Caminho 79" d="M19.433,15.917a1.485,1.485,0,0,1-1.484-1.484V11.464a.5.5,0,0,0-.495-.495H14.484a1.484,1.484,0,1,1,0-2.969h2.969a3.468,3.468,0,0,1,3.464,3.464v2.969A1.485,1.485,0,0,1,19.433,15.917Z" transform="translate(-13 -8)" fill="#2392a5"/>
    </g>
    <g id="Grupo_114" data-name="Grupo 114" transform="translate(9.938 27.711)">
      <path id="Caminho_80" data-name="Caminho 80" d="M13.433,21.917H10.464A3.468,3.468,0,0,1,7,18.453V15.484a1.484,1.484,0,1,1,2.969,0v2.969a.5.5,0,0,0,.495.495h2.969a1.484,1.484,0,0,1,0,2.969Z" transform="translate(-7 -14)" fill="#2392a5"/>
    </g>
    <g id="Grupo_115" data-name="Grupo 115" transform="translate(21.814 27.711)">
      <path id="Caminho_81" data-name="Caminho 81" d="M17.453,21.917H14.484a1.484,1.484,0,1,1,0-2.969h2.969a.5.5,0,0,0,.495-.495V15.484a1.484,1.484,0,0,1,2.969,0v2.969A3.468,3.468,0,0,1,17.453,21.917Z" transform="translate(-13 -14)" fill="#2392a5"/>
    </g>
    <g id="Grupo_116" data-name="Grupo 116" transform="translate(7.959)">
      <path id="Caminho_82" data-name="Caminho 82" d="M22.329,7.917H13.422A3.468,3.468,0,0,1,9.959,4.453,1.488,1.488,0,0,0,8.474,2.969h-.99A1.484,1.484,0,1,1,7.484,0h.99a4.46,4.46,0,0,1,4.453,4.453.5.5,0,0,0,.495.495h8.907a.5.5,0,0,0,.495-.495A4.46,4.46,0,0,1,27.278,0h.99a1.484,1.484,0,0,1,0,2.969h-.99a1.488,1.488,0,0,0-1.484,1.484A3.468,3.468,0,0,1,22.329,7.917Z" transform="translate(-6)" fill="#2392a5"/>
    </g>
    <g id="Grupo_117" data-name="Grupo 117" transform="translate(4)">
      <path id="Caminho_83" data-name="Caminho 83" d="M30.226,47.5H9.443A5.448,5.448,0,0,1,4,42.061V5.443A5.448,5.448,0,0,1,9.443,0H30.226a5.448,5.448,0,0,1,5.443,5.443V42.061A5.448,5.448,0,0,1,30.226,47.5ZM9.443,2.969A2.478,2.478,0,0,0,6.969,5.443V42.061a2.478,2.478,0,0,0,2.474,2.474H30.226A2.478,2.478,0,0,0,32.7,42.061V5.443a2.478,2.478,0,0,0-2.474-2.474Z" transform="translate(-4 0)" fill="#2392a5"/>
    </g>
  </g>
</svg>
