<svg id="print" xmlns="http://www.w3.org/2000/svg" width="42.176" height="42.176" viewBox="0 0 42.176 42.176">
  <path id="Caminho_72" data-name="Caminho 72" d="M36,10.626H34.844V6.178A6.185,6.185,0,0,0,28.666,0H13.509A6.185,6.185,0,0,0,7.331,6.178v4.448H6.178A6.185,6.185,0,0,0,0,16.8v9.885a6.185,6.185,0,0,0,6.178,6.178H7.331v5.6a3.711,3.711,0,0,0,3.707,3.707h20.1a3.711,3.711,0,0,0,3.707-3.707v-5.6H36a6.185,6.185,0,0,0,6.178-6.178V16.8A6.185,6.185,0,0,0,36,10.626ZM9.8,6.178a3.711,3.711,0,0,1,3.707-3.707H28.666a3.711,3.711,0,0,1,3.707,3.707v4.448H9.8ZM32.373,38.469A1.237,1.237,0,0,1,31.138,39.7h-20.1A1.237,1.237,0,0,1,9.8,38.469V26.277H32.373ZM39.7,26.689A3.711,3.711,0,0,1,36,30.4H34.844V26.277h.741a1.236,1.236,0,0,0,0-2.471h-29a1.236,1.236,0,1,0,0,2.471h.741V30.4H6.178a3.711,3.711,0,0,1-3.707-3.707V16.8A3.711,3.711,0,0,1,6.178,13.1H36A3.711,3.711,0,0,1,39.7,16.8Z" fill="#2392a5"/>
  <path id="Caminho_73" data-name="Caminho 73" d="M208.826,353h-6.59a1.236,1.236,0,0,0,0,2.471h6.59a1.236,1.236,0,0,0,0-2.471Z" transform="translate(-184.443 -323.922)" fill="#2392a5"/>
  <path id="Caminho_74" data-name="Caminho 74" d="M208.826,417h-6.59a1.236,1.236,0,0,0,0,2.471h6.59a1.236,1.236,0,0,0,0-2.471Z" transform="translate(-184.443 -382.65)" fill="#2392a5"/>
  <path id="Caminho_75" data-name="Caminho 75" d="M70.19,193H66.236a1.236,1.236,0,0,0,0,2.471H70.19a1.236,1.236,0,0,0,0-2.471Z" transform="translate(-59.646 -177.102)" fill="#2392a5"/>
</svg>
