<svg xmlns="http://www.w3.org/2000/svg" width="38.699" height="38.699" viewBox="0 0 38.699 38.699">
  <g id="calendar" transform="translate(-19.23 147.77)">
    <g id="Grupo_119" data-name="Grupo 119" transform="translate(19.23 -147.77)">
      <g id="Grupo_118" data-name="Grupo 118">
        <ellipse id="Elipse_8" data-name="Elipse 8" cx="1.5" cy="1" rx="1.5" ry="1" transform="translate(27.699 14.699)" fill="#2392a5"/>
        <path id="Caminho_84" data-name="Caminho 84" d="M32.652,3.023H30.687V1.512a1.512,1.512,0,1,0-3.023,0V3.023H20.786V1.512a1.512,1.512,0,0,0-3.023,0V3.023h-6.8V1.512a1.512,1.512,0,1,0-3.023,0V3.023H6.047A6.054,6.054,0,0,0,0,9.07V32.652A6.054,6.054,0,0,0,6.047,38.7H17.611a1.512,1.512,0,0,0,0-3.023H6.047a3.027,3.027,0,0,1-3.023-3.023V9.07A3.027,3.027,0,0,1,6.047,6.047h1.89V7.558a1.512,1.512,0,0,0,3.023,0V6.047h6.8V7.558a1.512,1.512,0,0,0,3.023,0V6.047h6.878V7.558a1.512,1.512,0,1,0,3.023,0V6.047h1.965A3.027,3.027,0,0,1,35.676,9.07v8.617a1.512,1.512,0,1,0,3.023,0V9.07A6.054,6.054,0,0,0,32.652,3.023Z" fill="#2392a5"/>
        <path id="Caminho_85" data-name="Caminho 85" d="M279.146,270a9.146,9.146,0,1,0,9.146,9.146A9.156,9.156,0,0,0,279.146,270Zm0,15.268a6.122,6.122,0,1,1,6.122-6.122A6.129,6.129,0,0,1,279.146,285.268Z" transform="translate(-249.592 -249.592)" fill="#2392a5"/>
        <path id="Caminho_86" data-name="Caminho 86" d="M374.7,333.1h-.68v-1.587a1.512,1.512,0,0,0-3.023,0v3.1a1.512,1.512,0,0,0,1.512,1.512H374.7a1.512,1.512,0,1,0,0-3.023Z" transform="translate(-342.958 -305.057)" fill="#2392a5"/>
        <circle id="Elipse_9" data-name="Elipse 9" cx="1" cy="1" r="1" transform="translate(21.699 14.699)" fill="#2392a5"/>
        <ellipse id="Elipse_10" data-name="Elipse 10" cx="1" cy="1.5" rx="1" ry="1.5" transform="translate(14.699 20.699)" fill="#2392a5"/>
        <ellipse id="Elipse_11" data-name="Elipse 11" cx="1.5" cy="1" rx="1.5" ry="1" transform="translate(7.699 14.699)" fill="#2392a5"/>
        <circle id="Elipse_12" data-name="Elipse 12" cx="1.5" cy="1.5" r="1.5" transform="translate(7.699 20.699)" fill="#2392a5"/>
        <circle id="Elipse_13" data-name="Elipse 13" cx="1.5" cy="1.5" r="1.5" transform="translate(7.699 27.699)" fill="#2392a5"/>
        <ellipse id="Elipse_14" data-name="Elipse 14" cx="1" cy="1.5" rx="1" ry="1.5" transform="translate(14.699 27.699)" fill="#2392a5"/>
        <circle id="Elipse_15" data-name="Elipse 15" cx="1" cy="1" r="1" transform="translate(14.699 14.699)" fill="#2392a5"/>
      </g>
    </g>
  </g>
</svg>
