<svg xmlns="http://www.w3.org/2000/svg" width="46.905" height="32.213" viewBox="0 0 46.905 32.213">
  <g id="cvv" transform="translate(0 -71.77)">
    <g id="Grupo_109" data-name="Grupo 109" transform="translate(0 71.77)">
      <path id="Caminho_66" data-name="Caminho 66" d="M257.458,223.81a3.374,3.374,0,0,0,.414-.025.906.906,0,0,0,.319-.073c.2-.108.2-.3.168-.5a.382.382,0,0,0-.453-.315,1.123,1.123,0,0,1-.687-.091.945.945,0,0,1-.329-1.194.783.783,0,0,1,.59-.445,1.383,1.383,0,0,1,.409,0,.394.394,0,0,0,.355-.107.566.566,0,0,0,.1-.531c-.117-.27-.495-.258-.743-.258a2.114,2.114,0,0,0-1.255.374,1.861,1.861,0,0,0-.5,2.277A1.733,1.733,0,0,0,257.458,223.81Z" transform="translate(-229.49 -205.073)" fill="#6c6c6c"/>
      <path id="Caminho_67" data-name="Caminho 67" d="M285.929,224.109c.121.332.582.242.858.242a.4.4,0,0,0,.411-.24c.015-.035.026-.071.04-.106l.6-1.621.28-.753c.083-.223.167-.491-.108-.635a1.007,1.007,0,0,0-.452-.042.409.409,0,0,0-.437.242c-.078.213-.124.441-.184.659-.119.43-.241.858-.332,1.3-.125-.619-.329-1.226-.505-1.832a.511.511,0,0,0-.151-.283.669.669,0,0,0-.448-.082.58.58,0,0,0-.46.111.382.382,0,0,0-.073.409Z" transform="translate(-255.778 -205.682)" fill="#6c6c6c"/>
      <path id="Caminho_68" data-name="Caminho 68" d="M320.847,224.109c.121.332.582.242.858.242a.4.4,0,0,0,.41-.24c.015-.035.026-.071.04-.106l.6-1.621.28-.753c.083-.223.167-.491-.108-.635a1.008,1.008,0,0,0-.452-.042.409.409,0,0,0-.437.242c-.078.213-.124.441-.184.659-.119.43-.241.858-.332,1.3-.126-.619-.329-1.226-.505-1.832a.511.511,0,0,0-.151-.283.669.669,0,0,0-.448-.082.58.58,0,0,0-.46.111.382.382,0,0,0-.073.409Z" transform="translate(-287.122 -205.682)" fill="#6c6c6c"/>
      <path id="Caminho_69" data-name="Caminho 69" d="M31.12,99.123a10.629,10.629,0,0,1-5.974-1.83H5.061A2.263,2.263,0,0,1,2.8,95.032v-12.2H22.018a10.764,10.764,0,0,1,4.39-3.994l-23.607,0V76.831A2.263,2.263,0,0,1,5.062,74.57H37.28a2.263,2.263,0,0,1,2.261,2.261V78.84H35.83a10.691,10.691,0,0,1,5.061,13.931l1.45,1.348V76.831A5.067,5.067,0,0,0,37.28,71.77H5.061A5.067,5.067,0,0,0,0,76.831v18.2a5.067,5.067,0,0,0,5.061,5.061H37.2l-1.941-1.8A10.664,10.664,0,0,1,31.12,99.123Z" transform="translate(0 -71.77)" fill="#6c6c6c"/>
      <path id="Caminho_70" data-name="Caminho 70" d="M61.731,219.974a.737.737,0,0,0-.737.737v2.195a.737.737,0,0,0,.737.737H75.4a10.716,10.716,0,0,1-.117-3.668Z" transform="translate(-54.751 -204.805)" fill="#6c6c6c"/>
      <path id="Caminho_71" data-name="Caminho 71" d="M236.468,164.537l-7.518-6.988a9.409,9.409,0,1,0-2.648,2.546l7.669,7.129a1.834,1.834,0,1,0,2.5-2.686Zm-15.233-18.575a6.211,6.211,0,1,1-6.211,6.211A6.218,6.218,0,0,1,221.234,145.961Z" transform="translate(-190.148 -135.5)" fill="#6c6c6c"/>
    </g>
  </g>
</svg>
