<svg xmlns="http://www.w3.org/2000/svg" width="65.645" height="65.639" viewBox="0 0 65.645 65.639">
  <g id="pay_1_" data-name="pay (1)" transform="translate(0 -0.023)">
    <g id="Grupo_93" data-name="Grupo 93" transform="translate(19.584 49.235)">
      <g id="Grupo_92" data-name="Grupo 92">
        <path id="Caminho_61" data-name="Caminho 61" d="M155.289,384.888a1.337,1.337,0,0,0-.073-.241,1.3,1.3,0,0,0-.118-.221,1.246,1.246,0,0,0-.354-.354,1.266,1.266,0,0,0-.222-.118,1.2,1.2,0,0,0-.24-.073,1.262,1.262,0,0,0-.5,0,1.243,1.243,0,0,0-.241.073,1.3,1.3,0,0,0-.221.118,1.246,1.246,0,0,0-.354.354,1.215,1.215,0,0,0-.118.221,1.243,1.243,0,0,0-.073.241,1.232,1.232,0,0,0,0,.5,1.2,1.2,0,0,0,.073.24,1.186,1.186,0,0,0,.118.222,1.245,1.245,0,0,0,.354.354,1.293,1.293,0,0,0,.221.118,1.243,1.243,0,0,0,.241.073,1.232,1.232,0,0,0,.5,0,1.2,1.2,0,0,0,.24-.073,1.267,1.267,0,0,0,.222-.118,1.245,1.245,0,0,0,.354-.354,1.267,1.267,0,0,0,.118-.222,1.294,1.294,0,0,0,.073-.24,1.231,1.231,0,0,0,0-.5Z" transform="translate(-152.75 -383.857)" fill="#2392a5"/>
      </g>
    </g>
    <g id="Grupo_95" data-name="Grupo 95" transform="translate(0 39.756)">
      <g id="Grupo_94" data-name="Grupo 94">
        <path id="Caminho_62" data-name="Caminho 62" d="M58.977,320.828l-.016-.038c-1.18-2.761-3.948-3.782-7.223-2.663l-8.932,2.47a5.855,5.855,0,0,0-3.626-3.571l-.034-.012-9.819-3.332a10.127,10.127,0,0,0-8.17-3.759c-3.35,0-6.313,2.3-8.008,4.8H1.282A1.282,1.282,0,0,0,0,316.007v16.165a1.282,1.282,0,0,0,1.282,1.282H8.905a1.282,1.282,0,0,0,1.282-1.282v-1.107h3.575a1.282,1.282,0,0,0,1.282-1.282v-.369a9.09,9.09,0,0,1,4.683,1.681,77.587,77.587,0,0,0,7.7,3.933l.056.024a11.508,11.508,0,0,0,4.125.778,10.22,10.22,0,0,0,4.248-.91L55.6,327.849c.035-.013.07-.027.1-.042C57.593,326.939,60.405,324.492,58.977,320.828ZM7.623,330.889H2.564v-13.6H7.623ZM12.48,328.5H10.187V317.289H12.48Zm42.2-3.045-19.735,7.066-.058.022-.052.022a8.31,8.31,0,0,1-6.385.109,74.275,74.275,0,0,1-7.444-3.8,11.54,11.54,0,0,0-5.964-2.029V316.517c1.215-1.992,3.572-4.031,6.113-4.031a7.4,7.4,0,0,1,6.276,2.949,1.282,1.282,0,0,0,.68.543l10.19,3.458A2.877,2.877,0,0,1,40.4,322.83a2.5,2.5,0,0,1-3.069,1.724l-11.487-3.64a1.282,1.282,0,1,0-.775,2.444L36.572,327l.037.011a5.033,5.033,0,0,0,3.849-.447,5.028,5.028,0,0,0,2.405-3.038q.044-.156.078-.312l9.627-2.667c1.39-.475,3.215-.646,4.028,1.225C57.436,323.975,55.25,325.184,54.682,325.455Z" transform="translate(0 -309.922)" fill="#2392a5"/>
      </g>
    </g>
    <g id="Grupo_97" data-name="Grupo 97" transform="translate(43.496 15.854)">
      <g id="Grupo_96" data-name="Grupo 96">
        <path id="Caminho_63" data-name="Caminho 63" d="M341.79,124.529a1.247,1.247,0,0,0-.074-.241,1.214,1.214,0,0,0-.118-.221,1.247,1.247,0,0,0-.354-.354,1.3,1.3,0,0,0-.221-.118,1.277,1.277,0,0,0-.741-.073,1.2,1.2,0,0,0-.24.073,1.264,1.264,0,0,0-.222.118,1.246,1.246,0,0,0-.354.354,1.3,1.3,0,0,0-.118.221,1.243,1.243,0,0,0-.073.241,1.232,1.232,0,0,0,0,.5,1.2,1.2,0,0,0,.073.24,1.265,1.265,0,0,0,.118.222,1.246,1.246,0,0,0,.354.354,1.264,1.264,0,0,0,.222.118,1.3,1.3,0,0,0,.24.073,1.263,1.263,0,0,0,.25.026,1.286,1.286,0,0,0,.251-.026,1.357,1.357,0,0,0,.24-.073,1.3,1.3,0,0,0,.221-.118,1.247,1.247,0,0,0,.354-.354,1.185,1.185,0,0,0,.118-.222,1.208,1.208,0,0,0,.074-.24,1.3,1.3,0,0,0,0-.5Z" transform="translate(-339.25 -123.498)" fill="#2392a5"/>
      </g>
    </g>
    <g id="Grupo_99" data-name="Grupo 99" transform="translate(3.807 0.023)">
      <g id="Grupo_98" data-name="Grupo 98">
        <path id="Caminho_64" data-name="Caminho 64" d="M90.246,4.366H82.623a1.282,1.282,0,0,0-1.282,1.282V6.755H77.766a1.282,1.282,0,0,0-1.282,1.282v.369A9.09,9.09,0,0,1,71.8,6.725a77.582,77.582,0,0,0-7.7-3.933l-.056-.024A10.908,10.908,0,0,0,55.67,2.9L50.51,4.747,46.162.4a1.282,1.282,0,0,0-1.813,0L30.071,14.676a1.272,1.272,0,0,0,0,1.813l24.4,24.4a1.385,1.385,0,0,0,1.813,0L69.316,27.852c.339.029.691.045,1.055.045,3.35,0,6.313-2.3,8.008-4.8H90.246a1.282,1.282,0,0,0,1.282-1.282V5.648A1.282,1.282,0,0,0,90.246,4.366ZM45.255,3.119l2.922,2.922a5.59,5.59,0,0,1-5.844,0ZM35.713,18.5l-2.922-2.922,2.922-2.922a5.59,5.59,0,0,1,0,5.845ZM55.375,38.167l-2.922-2.922a5.582,5.582,0,0,1,5.843,0ZM60.144,33.4a8.148,8.148,0,0,0-9.538,0L37.56,20.352a8.148,8.148,0,0,0,0-9.539l2.925-2.925a8.148,8.148,0,0,0,9.539,0L52.8,10.661a5.082,5.082,0,0,0-3.815,2.8,7.307,7.307,0,1,0,8.4,9.046l4.329,1.469a8.186,8.186,0,0,0,1.358,6.5Zm-7.8-12.6.034.012,2.564.87a4.744,4.744,0,1,1-6.439-5.419A5.676,5.676,0,0,0,52.349,20.793Zm12.57,7.829a5.608,5.608,0,0,1-.819-2.666,9.969,9.969,0,0,0,2.261,1.224ZM76.484,21.3c-1.215,1.992-3.572,4.031-6.113,4.031a9.332,9.332,0,0,1-1.338-.094h-.005a7.343,7.343,0,0,1-4.749-2.6c-.026-.038-.138-.184-.154-.208a1.277,1.277,0,0,0-.707-.588l-10.194-3.46a2.877,2.877,0,0,1-2.093-3.393v-.006a2.5,2.5,0,0,1,3.068-1.72L65.689,16.9a1.282,1.282,0,0,0,.775-2.444l-9.136-2.9-.08-.08,0,0-4.73-4.73L56.581,5.3l.044-.017.013-.005.052-.022a8.309,8.309,0,0,1,6.385-.109,74.269,74.269,0,0,1,7.444,3.8,11.538,11.538,0,0,0,5.964,2.029Zm4.857-.771H79.048V9.319h2.293Zm7.623,0H83.905V6.93h5.059Z" transform="translate(-29.691 -0.023)" fill="#2392a5"/>
      </g>
    </g>
  </g>
</svg>
