<svg xmlns="http://www.w3.org/2000/svg" width="72.449" height="72.293" viewBox="0 0 72.449 72.293">
  <g id="payment" transform="translate(0 -0.516)">
    <g id="Grupo_91" data-name="Grupo 91" transform="translate(0 0.516)">
      <g id="Grupo_90" data-name="Grupo 90" transform="translate(0 0)">
        <rect id="Retângulo_50" data-name="Retângulo 50" width="7.26" height="2.42" transform="translate(52.032 48.247)" fill="#2392a5"/>
        <rect id="Retângulo_51" data-name="Retângulo 51" width="7.26" height="2.42" transform="translate(42.352 48.247)" fill="#2392a5"/>
        <rect id="Retângulo_52" data-name="Retângulo 52" width="7.26" height="2.42" transform="translate(32.671 48.247)" fill="#2392a5"/>
        <path id="Caminho_42" data-name="Caminho 42" d="M71.377,25.534,47.434,1.587A3.615,3.615,0,0,0,44.861.516H44.85A3.58,3.58,0,0,0,42.3,1.587l-25.4,25.4H3.63A3.63,3.63,0,0,0,0,30.612V64.493a3.63,3.63,0,0,0,3.63,3.63H21.558l3.611,3.614a3.615,3.615,0,0,0,2.573,1.071h.01A3.582,3.582,0,0,0,30.3,71.738l3.618-3.614h27.79a3.63,3.63,0,0,0,3.63-3.63V36.7l6.028-6.028a3.611,3.611,0,0,0,.006-5.141ZM55.984,13.563,42.564,26.982H32.289L50.846,8.425ZM44.012,3.293a1.193,1.193,0,0,1,1.687-.02l.02.02,3.416,3.421L28.866,26.982H20.321ZM28.591,70.032a1.177,1.177,0,0,1-.847.363,1.21,1.21,0,0,1-.862-.363l-1.9-1.908H30.5Zm34.331-5.538a1.21,1.21,0,0,1-1.21,1.21H3.63a1.21,1.21,0,0,1-1.21-1.21V47.553h60.5Zm0-19.361H2.42v-7.26h60.5Zm0-9.68H2.42v-4.84A1.21,1.21,0,0,1,3.63,29.4H61.712a1.21,1.21,0,0,1,1.21,1.21Zm6.744-6.494h0l-4.323,4.323V30.612a3.63,3.63,0,0,0-3.63-3.63H45.982L57.69,15.274,69.661,27.245a1.21,1.21,0,0,1,.363.865A1.186,1.186,0,0,1,69.666,28.958Z" transform="translate(0 -0.516)" fill="#2392a5"/>
        <path id="Caminho_43" data-name="Caminho 43" d="M31.8,367.993a4.838,4.838,0,0,0,.495-.495,4.8,4.8,0,0,0,6.37.82,4.92,4.92,0,0,0,2.1-3.988,4.84,4.84,0,0,0-4.84-4.84,3.669,3.669,0,0,0-.716.061l-.031.008h-.035a4.778,4.778,0,0,0-2.847,1.607,4.84,4.84,0,1,0-.495,6.827Zm3.819-6.057a1.461,1.461,0,0,1,.306-.025,2.42,2.42,0,0,1,2.42,2.42,2.373,2.373,0,0,1-.476,1.419c-.044.059-.077.121-.127.183-.008.01-.021.016-.03.025a2.406,2.406,0,1,1-2.093-4.022Zm-6.954-.025a2.42,2.42,0,1,1-2.42,2.42A2.42,2.42,0,0,1,28.666,361.91Z" transform="translate(-20.196 -305.193)" fill="#2392a5"/>
      </g>
    </g>
  </g>
</svg>
