<svg xmlns="http://www.w3.org/2000/svg" width="81.308" height="61.183" viewBox="0 0 81.308 61.183">
  <g id="barcode" transform="translate(-4.557 -19.271)">
    <path id="Caminho_44" data-name="Caminho 44" d="M13.867,29.778V75.832a1.2,1.2,0,0,0,1.2,1.2h66.18a1.2,1.2,0,0,0,1.2-1.2V29.778a1.2,1.2,0,0,0-1.2-1.2H15.064a1.2,1.2,0,0,0-1.2,1.2Zm2.394,1.2H80.047v43.66H16.261Z" transform="translate(-2.943 -2.943)" fill="#2392a5"/>
    <path id="Caminho_45" data-name="Caminho 45" d="M63.447,78a1.2,1.2,0,0,0-1.2,1.2v3.651a1.2,1.2,0,0,0,2.394,0V79.2a1.2,1.2,0,0,0-1.2-1.2Z" transform="translate(-18.236 -18.563)" fill="#2392a5"/>
    <path id="Caminho_46" data-name="Caminho 46" d="M63.447,41.157a1.2,1.2,0,0,0-1.2,1.2V62.14a1.2,1.2,0,0,0,2.394,0V42.354A1.2,1.2,0,0,0,63.447,41.157Z" transform="translate(-18.236 -6.918)" fill="#2392a5"/>
    <path id="Caminho_47" data-name="Caminho 47" d="M45.177,78a1.2,1.2,0,0,0-1.2,1.2v3.651a1.2,1.2,0,0,0,2.394,0V79.2a1.2,1.2,0,0,0-1.2-1.2Z" transform="translate(-12.461 -18.563)" fill="#2392a5"/>
    <path id="Caminho_48" data-name="Caminho 48" d="M45.177,41.157a1.2,1.2,0,0,0-1.2,1.2V62.14a1.2,1.2,0,0,0,2.394,0V42.354a1.2,1.2,0,0,0-1.2-1.2Z" transform="translate(-12.461 -6.918)" fill="#2392a5"/>
    <path id="Caminho_49" data-name="Caminho 49" d="M54.312,41.157a1.2,1.2,0,0,0-1.2,1.2V71.206a1.2,1.2,0,0,0,2.394,0V42.354a1.2,1.2,0,0,0-1.2-1.2Z" transform="translate(-15.348 -6.918)" fill="#2392a5"/>
    <path id="Caminho_50" data-name="Caminho 50" d="M36.047,41.157a1.2,1.2,0,0,0-1.2,1.2V71.206a1.2,1.2,0,0,0,2.394,0V42.354a1.2,1.2,0,0,0-1.2-1.2Z" transform="translate(-9.575 -6.918)" fill="#2392a5"/>
    <path id="Caminho_51" data-name="Caminho 51" d="M26.907,41.157a1.2,1.2,0,0,0-1.2,1.2V71.206a1.2,1.2,0,0,0,2.394,0V42.354a1.2,1.2,0,0,0-1.2-1.2Z" transform="translate(-6.686 -6.918)" fill="#2392a5"/>
    <path id="Caminho_52" data-name="Caminho 52" d="M72.582,41.157a1.2,1.2,0,0,0-1.2,1.2V71.206a1.2,1.2,0,0,0,2.394,0V42.354a1.2,1.2,0,0,0-1.2-1.2Z" transform="translate(-21.123 -6.918)" fill="#2392a5"/>
    <path id="Caminho_53" data-name="Caminho 53" d="M90.847,41.157a1.2,1.2,0,0,0-1.2,1.2V71.206a1.2,1.2,0,0,0,2.394,0V42.354a1.2,1.2,0,0,0-1.2-1.2Z" transform="translate(-26.896 -6.918)" fill="#2392a5"/>
    <path id="Caminho_54" data-name="Caminho 54" d="M81.717,78a1.2,1.2,0,0,0-1.2,1.2v3.651a1.2,1.2,0,0,0,2.394,0V79.2a1.2,1.2,0,0,0-1.2-1.2Z" transform="translate(-24.01 -18.563)" fill="#2392a5"/>
    <path id="Caminho_55" data-name="Caminho 55" d="M81.717,41.157a1.2,1.2,0,0,0-1.2,1.2V62.14a1.2,1.2,0,0,0,2.394,0V42.354a1.2,1.2,0,0,0-1.2-1.2Z" transform="translate(-24.01 -6.918)" fill="#2392a5"/>
    <path id="Caminho_56" data-name="Caminho 56" d="M99.987,41.157a1.2,1.2,0,0,0-1.2,1.2V71.206a1.2,1.2,0,0,0,2.394,0V42.354a1.2,1.2,0,0,0-1.2-1.2Z" transform="translate(-29.785 -6.918)" fill="#2392a5"/>
    <path id="Caminho_57" data-name="Caminho 57" d="M117.859,94.849a1.2,1.2,0,0,0-1.2,1.2v5.9h-5.9a1.2,1.2,0,0,0,0,2.394h7.1a1.2,1.2,0,0,0,1.2-1.2v-7.1a1.2,1.2,0,0,0-1.2-1.2Z" transform="translate(-33.19 -23.889)" fill="#2392a5"/>
    <path id="Caminho_58" data-name="Caminho 58" d="M12.853,101.948h-5.9v-5.9a1.2,1.2,0,0,0-2.394,0v7.1a1.2,1.2,0,0,0,1.2,1.2h7.1a1.2,1.2,0,1,0,0-2.394Z" transform="translate(0 -23.889)" fill="#2392a5"/>
    <path id="Caminho_59" data-name="Caminho 59" d="M117.859,19.271h-7.1a1.2,1.2,0,1,0,0,2.394h5.9v5.9a1.2,1.2,0,0,0,2.394,0v-7.1a1.2,1.2,0,0,0-1.2-1.2Z" transform="translate(-33.19)" fill="#2392a5"/>
    <path id="Caminho_60" data-name="Caminho 60" d="M5.754,28.764a1.2,1.2,0,0,0,1.2-1.2v-5.9h5.9a1.2,1.2,0,0,0,0-2.394h-7.1a1.2,1.2,0,0,0-1.2,1.2v7.1a1.2,1.2,0,0,0,1.2,1.2Z" transform="translate(0)" fill="#2392a5"/>
  </g>
</svg>
